<?xml version="1.0" encoding="utf-8"?>
<!-- Generator: Adobe Illustrator 25.2.0, SVG Export Plug-In . SVG Version: 6.00 Build 0)  -->
<svg version="1.1" id="Layer_1" xmlns="http://www.w3.org/2000/svg" xmlns:xlink="http://www.w3.org/1999/xlink" x="0px" y="0px"
	 viewBox="0 0 1920 1080" style="enable-background:new 0 0 1920 1080;" xml:space="preserve">
<style type="text/css">
	.st0{fill-rule:evenodd;clip-rule:evenodd;fill:none;}
	.st1{opacity:0.7;fill-rule:evenodd;clip-rule:evenodd;fill:#FFFFFF;}
	.st2{fill-rule:evenodd;clip-rule:evenodd;fill:#4E73DF;}
	.st3{fill-rule:evenodd;clip-rule:evenodd;fill:url(#SVGID_1_);}
	.st4{display:none;}
	.st5{display:inline;opacity:0.7;fill-rule:evenodd;clip-rule:evenodd;fill:#FFFFFF;}
	.st6{display:inline;fill-rule:evenodd;clip-rule:evenodd;fill:#4E73DF;}
	.st7{fill-rule:evenodd;clip-rule:evenodd;fill:url(#New_Pattern_2);}
</style>
<pattern  width="656.16" height="530.78" patternUnits="userSpaceOnUse" id="New_Pattern_2" viewBox="89.54 -626.98 656.16 530.78" style="overflow:visible;">
	<g>
		<rect x="89.54" y="-626.98" class="st0" width="656.16" height="530.78"/>
		<g>
			<path class="st1" d="M671.39-272.47l-14.23,9.85c-0.94,0.65-1.26,1.89-0.76,2.91l61.63,125.08c0.93,1.9,3.33,2.52,5.07,1.32
				l55.33-38.29l-81.87-118.29l-19.06,13.2c-6.59-14.27-5.47-28.92,3.58-35.19c9.05-6.27,23.17-2.16,34.2,9.04l-18.72,12.95
				l81.87,118.29l55.33-38.29c1.74-1.2,2-3.67,0.56-5.21l-95.36-101.74c-0.78-0.83-2.05-0.97-2.99-0.32l-14.31,9.91
				c-14.68-16.28-34.39-22.59-46.84-13.97C662.36-312.61,661.33-291.95,671.39-272.47z"/>
			<path class="st2" d="M730.63-271.51l-4.06,3.17l-3.26,2.61l-1.56,1.67l-1.07,1.69l-0.83,1.53l-0.57,1.23l-0.58,1.71l-2.67-3.86
				l0,0l2.67,3.86l-1.81-0.06l-1.35,0.1l-1.72,0.24l-1.96,0.41l-2.11,0.87l-3.6,2.13l-4.39,2.68l-5.99,3.79l-1.75,1.21L706.16-229
				l22.01-15.23l0,0L706.16-229l-3.63-5.24l12.75-8.34l2.56-1.41l1.29-0.53l1.02-0.22l1.43-0.14l1.98-0.04l1.6,0.1l1.36,0.27
				l1.64,0.32l0.28-1.65l0.23-1.37l0.47-1.54l0.73-1.84l0.64-1.29l0.57-0.88l0.95-1.02l2.22-1.9l12.29-8.99l3.63,5.24l-22.01,15.23
				l22.01-15.23L738.03-277l-1.76,1.21L730.63-271.51z M726.5-230.03l10.66,15.4c1.89,1.56,6.7,3.85,11.09,0.81
				c5.81-4.02,5.24-7.72,4.85-10.2c-0.05-0.34-0.1-0.66-0.13-0.95l-10.95-15.81c-1.48-2.13-0.94-5.05,1.19-6.53l10.38-7.18
				l16.24,23.47c5.47,7.9,3.6,18.74-4.21,24.34l0.05,0.08c-0.84,1.23-3.43,4.32-7.07,6.84c-3.64,2.52-7.16,3.66-8.46,3.92
				l-0.05-0.08c-8,5.33-18.8,3.27-24.27-4.63l-16.24-23.47l10.38-7.18C722.1-232.7,725.03-232.17,726.5-230.03z"/>
		</g>
		<g>
			<path class="st1" d="M343.31-139.78l-14.23,9.85c-0.94,0.65-1.26,1.89-0.76,2.91L389.95-1.93c0.93,1.9,3.33,2.52,5.07,1.32
				l55.33-38.29L368.48-157.2L349.41-144c-6.59-14.27-5.47-28.92,3.58-35.19c9.06-6.27,23.17-2.16,34.2,9.04l-18.72,12.95
				l81.87,118.29l55.33-38.29c1.74-1.2,2-3.67,0.56-5.21l-95.36-101.74c-0.78-0.83-2.05-0.97-2.99-0.32l-14.31,9.91
				c-14.68-16.28-34.39-22.59-46.84-13.97C334.28-179.92,333.24-159.25,343.31-139.78z"/>
			<path class="st2" d="M402.54-138.82l-4.06,3.17l-3.26,2.61l-1.56,1.67l-1.07,1.69l-0.83,1.53l-0.57,1.23l-0.58,1.71l-2.67-3.86
				l0,0l2.67,3.86l-1.81-0.06l-1.35,0.1l-1.72,0.24l-1.96,0.41l-2.11,0.87l-3.6,2.13l-4.39,2.68l-5.99,3.79l-1.75,1.21l12.14,17.54
				l22.01-15.23l0,0L378.08-96.3l-3.63-5.24l12.75-8.34l2.56-1.41l1.29-0.53l1.02-0.22l1.43-0.14l1.98-0.04l1.6,0.1l1.36,0.27
				l1.64,0.32l0.28-1.65l0.23-1.37l0.47-1.54l0.73-1.84l0.64-1.29l0.57-0.88l0.95-1.02l2.22-1.9l12.29-8.99l3.63,5.24l-22.01,15.23
				l22.01-15.23l-12.14-17.54l-1.76,1.21L402.54-138.82z M398.42-97.34l10.66,15.4c1.89,1.56,6.7,3.85,11.09,0.81
				c5.81-4.02,5.24-7.72,4.85-10.2c-0.05-0.34-0.1-0.66-0.13-0.95l-10.95-15.81c-1.48-2.13-0.94-5.05,1.19-6.53l10.38-7.18
				l16.24,23.47c5.47,7.9,3.6,18.74-4.21,24.34l0.05,0.08c-0.84,1.23-3.43,4.32-7.07,6.84s-7.16,3.66-8.46,3.92l-0.05-0.08
				c-8,5.33-18.8,3.27-24.27-4.63l-16.24-23.47l10.38-7.18C394.02-100,396.94-99.47,398.42-97.34z"/>
		</g>
		<g>
			<path class="st1" d="M15.23-272.47l-14.23,9.85c-0.94,0.65-1.26,1.89-0.76,2.91l61.63,125.08c0.93,1.9,3.33,2.52,5.07,1.32
				l55.33-38.29L40.4-289.89l-19.06,13.2c-6.59-14.27-5.47-28.92,3.58-35.19c9.06-6.27,23.17-2.16,34.2,9.04L40.4-289.89
				l81.87,118.29l55.33-38.29c1.74-1.2,2-3.67,0.56-5.21L82.79-316.84c-0.78-0.83-2.05-0.97-2.99-0.32l-14.31,9.91
				c-14.68-16.28-34.39-22.59-46.84-13.97C6.2-312.61,5.16-291.95,15.23-272.47z"/>
			<path class="st2" d="M74.46-271.51l-4.06,3.17l-3.26,2.61l-1.56,1.67l-1.07,1.69l-0.83,1.53l-0.57,1.23l-0.58,1.71l-2.67-3.86
				l0,0l2.67,3.86l-1.81-0.06l-1.35,0.1l-1.72,0.24l-1.96,0.41l-2.11,0.87l-3.6,2.13l-4.39,2.68l-5.99,3.79l-1.75,1.21L49.99-229
				L72-244.23l0,0L49.99-229l-3.63-5.24l12.75-8.34l2.56-1.41l1.29-0.53l1.02-0.22l1.43-0.14l1.98-0.04l1.6,0.1l1.36,0.27l1.64,0.32
				l0.28-1.65l0.23-1.37l0.47-1.54l0.73-1.84l0.64-1.29l0.57-0.88l0.95-1.02l2.22-1.9l12.29-8.99l3.63,5.24L72-244.23l22.01-15.23
				L81.87-277l-1.76,1.21L74.46-271.51z M70.34-230.03L81-214.63c1.89,1.56,6.7,3.85,11.09,0.81c5.81-4.02,5.24-7.72,4.85-10.2
				c-0.05-0.34-0.1-0.66-0.13-0.95l-10.95-15.81c-1.48-2.13-0.94-5.05,1.19-6.53l10.38-7.18l16.24,23.47
				c5.47,7.9,3.6,18.74-4.21,24.34l0.05,0.08c-0.84,1.23-3.44,4.32-7.07,6.84c-3.64,2.52-7.16,3.66-8.46,3.92l-0.05-0.08
				c-8,5.33-18.8,3.27-24.27-4.63l-16.24-23.47l10.38-7.18C65.94-232.7,68.86-232.17,70.34-230.03z"/>
		</g>
		<g>
			<path class="st1" d="M671.39-537.86l-14.23,9.85c-0.94,0.65-1.26,1.89-0.76,2.91l61.63,125.08c0.93,1.9,3.33,2.52,5.07,1.32
				L778.43-437l-81.87-118.29l-19.06,13.2c-6.59-14.27-5.47-28.92,3.58-35.19c9.05-6.27,23.17-2.16,34.2,9.04l-18.72,12.95
				L778.43-437l55.33-38.29c1.74-1.2,2-3.67,0.56-5.21l-95.36-101.74c-0.78-0.83-2.05-0.97-2.99-0.32l-14.31,9.91
				c-14.68-16.28-34.39-22.59-46.84-13.97C662.36-578,661.33-557.34,671.39-537.86z"/>
			<path class="st2" d="M730.63-536.9l-4.06,3.17l-3.26,2.61l-1.56,1.67l-1.07,1.69l-0.83,1.53l-0.57,1.23l-0.58,1.71l-2.67-3.86
				l0,0l2.67,3.86l-1.81-0.06l-1.35,0.1l-1.72,0.24l-1.96,0.41l-2.11,0.87l-3.6,2.13l-4.39,2.68l-5.99,3.79l-1.75,1.21l12.14,17.54
				l22.01-15.23l0,0l-22.01,15.23l-3.63-5.24l12.75-8.34l2.56-1.41l1.29-0.53l1.02-0.22l1.43-0.14l1.98-0.04l1.6,0.1l1.36,0.27
				l1.64,0.32l0.28-1.65l0.23-1.37l0.47-1.54l0.73-1.84l0.64-1.29l0.57-0.88l0.95-1.02l2.22-1.9l12.29-8.99l3.63,5.24l-22.01,15.23
				l22.01-15.23l-12.14-17.54l-1.76,1.21L730.63-536.9z M726.5-495.43l10.66,15.4c1.89,1.56,6.7,3.85,11.09,0.81
				c5.81-4.02,5.24-7.72,4.85-10.2c-0.05-0.34-0.1-0.66-0.13-0.95l-10.95-15.81c-1.48-2.13-0.94-5.05,1.19-6.53l10.38-7.18
				l16.24,23.47c5.47,7.9,3.6,18.74-4.21,24.34l0.05,0.08c-0.84,1.23-3.43,4.32-7.07,6.84c-3.64,2.52-7.16,3.66-8.46,3.92
				l-0.05-0.08c-8,5.33-18.8,3.27-24.27-4.63l-16.24-23.47l10.38-7.18C722.1-498.09,725.03-497.56,726.5-495.43z"/>
		</g>
		<g>
			<path class="st1" d="M343.31-405.17l-14.23,9.85c-0.94,0.65-1.26,1.89-0.76,2.91l61.63,125.08c0.93,1.9,3.33,2.52,5.07,1.32
				l55.33-38.29l-81.87-118.29l-19.06,13.2c-6.59-14.27-5.47-28.92,3.58-35.19c9.06-6.27,23.17-2.16,34.2,9.04l-18.72,12.95
				l81.87,118.29l55.33-38.29c1.74-1.2,2-3.67,0.56-5.21l-95.36-101.74c-0.78-0.83-2.05-0.97-2.99-0.32l-14.31,9.91
				c-14.68-16.28-34.39-22.59-46.84-13.97C334.28-445.31,333.24-424.64,343.31-405.17z"/>
			<path class="st2" d="M402.54-404.21l-4.06,3.17l-3.26,2.61l-1.56,1.67l-1.07,1.69l-0.83,1.53l-0.57,1.23l-0.58,1.71l-2.67-3.86
				l0,0l2.67,3.86l-1.81-0.06l-1.35,0.1l-1.72,0.24l-1.96,0.41l-2.11,0.87l-3.6,2.13l-4.39,2.68l-5.99,3.79l-1.75,1.21l12.14,17.54
				l22.01-15.23l0,0l-22.01,15.23l-3.63-5.24l12.75-8.34l2.56-1.41l1.29-0.53l1.02-0.22l1.43-0.14l1.98-0.04l1.6,0.1l1.36,0.27
				l1.64,0.32l0.28-1.65l0.23-1.37l0.47-1.54l0.73-1.84l0.64-1.29l0.57-0.88l0.95-1.02l2.22-1.9l12.29-8.99l3.63,5.24l-22.01,15.23
				l22.01-15.23l-12.14-17.54l-1.76,1.21L402.54-404.21z M398.42-362.73l10.66,15.4c1.89,1.56,6.7,3.85,11.09,0.81
				c5.81-4.02,5.24-7.72,4.85-10.2c-0.05-0.34-0.1-0.66-0.13-0.95l-10.95-15.81c-1.48-2.13-0.94-5.05,1.19-6.53l10.38-7.18
				l16.24,23.47c5.47,7.9,3.6,18.74-4.21,24.34l0.05,0.08c-0.84,1.23-3.43,4.32-7.07,6.84s-7.16,3.66-8.46,3.92l-0.05-0.08
				c-8,5.33-18.8,3.27-24.27-4.63l-16.24-23.47l10.38-7.18C394.02-365.39,396.94-364.86,398.42-362.73z"/>
		</g>
		<g>
			<path class="st1" d="M15.23-537.86l-14.23,9.85c-0.94,0.65-1.26,1.89-0.76,2.91l61.63,125.08c0.93,1.9,3.33,2.52,5.07,1.32
				L122.27-437L40.4-555.28l-19.06,13.2c-6.59-14.27-5.47-28.92,3.58-35.19c9.06-6.27,23.17-2.16,34.2,9.04L40.4-555.28L122.27-437
				l55.33-38.29c1.74-1.2,2-3.67,0.56-5.21L82.79-582.24c-0.78-0.83-2.05-0.97-2.99-0.32l-14.31,9.91
				c-14.68-16.28-34.39-22.59-46.84-13.97S5.16-557.34,15.23-537.86z"/>
			<path class="st2" d="M74.46-536.9l-4.06,3.17l-3.26,2.61l-1.56,1.67l-1.07,1.69l-0.83,1.53l-0.57,1.23l-0.58,1.71l-2.67-3.86l0,0
				l2.67,3.86l-1.81-0.06l-1.35,0.1l-1.72,0.24l-1.96,0.41l-2.11,0.87l-3.6,2.13l-4.39,2.68l-5.99,3.79l-1.75,1.21l12.14,17.54
				L72-509.62l0,0l-22.01,15.23l-3.63-5.24l12.75-8.34l2.56-1.41l1.29-0.53l1.02-0.22l1.43-0.14l1.98-0.04l1.6,0.1l1.36,0.27
				l1.64,0.32l0.28-1.65l0.23-1.37l0.47-1.54l0.73-1.84l0.64-1.29l0.57-0.88l0.95-1.02l2.22-1.9l12.29-8.99l3.63,5.24L72-509.62
				l22.01-15.23l-12.14-17.54l-1.76,1.21L74.46-536.9z M70.34-495.43L81-480.02c1.89,1.56,6.7,3.85,11.09,0.81
				c5.81-4.02,5.24-7.72,4.85-10.2c-0.05-0.34-0.1-0.66-0.13-0.95l-10.95-15.81c-1.48-2.13-0.94-5.05,1.19-6.53l10.38-7.18
				l16.24,23.47c5.47,7.9,3.6,18.74-4.21,24.34l0.05,0.08c-0.84,1.23-3.44,4.32-7.07,6.84c-3.64,2.52-7.16,3.66-8.46,3.92
				l-0.05-0.08c-8,5.33-18.8,3.27-24.27-4.63l-16.24-23.47l10.38-7.18C65.94-498.09,68.86-497.56,70.34-495.43z"/>
		</g>
		<g>
			<path class="st1" d="M343.31-670.56l-14.23,9.85c-0.94,0.65-1.26,1.89-0.76,2.91l61.63,125.08c0.93,1.9,3.33,2.52,5.07,1.32
				l55.33-38.29l-81.87-118.29l-19.06,13.2c-6.59-14.27-5.47-28.92,3.58-35.19c9.06-6.27,23.17-2.16,34.2,9.04l-18.72,12.95
				l81.87,118.29l55.33-38.29c1.74-1.2,2-3.67,0.56-5.21l-95.36-101.74c-0.78-0.83-2.05-0.97-2.99-0.32l-14.31,9.91
				c-14.68-16.28-34.39-22.59-46.84-13.97C334.28-710.7,333.24-690.03,343.31-670.56z"/>
			<path class="st2" d="M402.54-669.6l-4.06,3.17l-3.26,2.61l-1.56,1.67l-1.07,1.69l-0.83,1.53l-0.57,1.23l-0.58,1.71l-2.67-3.86
				l0,0l2.67,3.86l-1.81-0.06l-1.35,0.1l-1.72,0.24l-1.96,0.41l-2.11,0.87l-3.6,2.13l-4.39,2.68l-5.99,3.79l-1.75,1.21l12.14,17.54
				l22.01-15.23l0,0l-22.01,15.23l-3.63-5.24l12.75-8.34l2.56-1.41l1.29-0.53l1.02-0.22l1.43-0.14l1.98-0.04l1.6,0.1l1.36,0.27
				l1.64,0.32l0.28-1.65l0.23-1.37l0.47-1.54l0.73-1.84l0.64-1.29l0.57-0.88l0.95-1.02l2.22-1.9l12.29-8.99l3.63,5.24l-22.01,15.23
				l22.01-15.23l-12.14-17.54l-1.76,1.21L402.54-669.6z M398.42-628.12l10.66,15.4c1.89,1.56,6.7,3.85,11.09,0.81
				c5.81-4.02,5.24-7.72,4.85-10.2c-0.05-0.34-0.1-0.66-0.13-0.95l-10.95-15.81c-1.48-2.13-0.94-5.05,1.19-6.53l10.38-7.18
				l16.24,23.47c5.47,7.9,3.6,18.74-4.21,24.34l0.05,0.08c-0.84,1.23-3.43,4.32-7.07,6.84s-7.16,3.66-8.46,3.92l-0.05-0.08
				c-8,5.33-18.8,3.27-24.27-4.63l-16.24-23.47l10.38-7.18C394.02-630.78,396.94-630.25,398.42-628.12z"/>
		</g>
	</g>
</pattern>
<linearGradient id="SVGID_1_" gradientUnits="userSpaceOnUse" x1="170.8696" y1="-249.1304" x2="1670.8695" y2="1250.8695">
	<stop  offset="0" style="stop-color:#4E73DF"/>
	<stop  offset="0.3353" style="stop-color:#4B70DD"/>
	<stop  offset="0.6064" style="stop-color:#4167D5"/>
	<stop  offset="0.8542" style="stop-color:#3057C8"/>
	<stop  offset="1" style="stop-color:#224ABE"/>
</linearGradient>
<rect class="st3" width="1920" height="1080"/>
<g class="st4">
	<path class="st5" d="M959.49,448.52c15.14,0,27.75,16.4,30.56,38.14h17.4c1.14,0,2.11,0.84,2.28,1.97l20.51,137.92
		c0.31,2.09-1.31,3.97-3.42,3.97h-67.29V486.66h22.76c-2.7-15.49-11.96-26.9-22.97-26.9c-11.01,0-20.28,11.41-22.97,26.9h23.19
		v143.86h-67.28c-2.11,0-3.73-1.88-3.42-3.97l20.51-137.92c0.17-1.13,1.14-1.97,2.28-1.97h17.31
		C931.74,464.92,944.36,448.52,959.49,448.52z"/>
</g>
<g class="st4">
	<path class="st6" d="M984.17,520.87h2.13v21.33h-26.76l26.76,0v-6.38l-15.22,0.4l-2.91,0.3l-1.36,0.3l-0.97,0.4l-1.26,0.7
		l-1.65,1.1l-1.26,1l-0.97,1l-1.16,1.2l-1.16-1.2l-0.97-1l-1.26-1l-1.65-1.1l-1.26-0.7l-0.97-0.4l-1.36-0.3l-2.91-0.3l-15.22-0.4
		v6.38h26.76l0,0h-26.76v-21.33h2.13l7.08,0.29l5.14,0.29l4.17,0.29l2.23,0.49l1.84,0.78l1.55,0.78l1.16,0.68l1.45,1.08v-4.7h0v4.7
		l1.45-1.08l1.16-0.68l1.55-0.78l1.84-0.78l2.23-0.49l4.17-0.29l5.14-0.29L984.17,520.87z M945.4,548.23h-12.62v28.54
		c0,9.61,7.71,17.45,17.32,17.62l0,0.09c1.22,0.53,4.76,1.59,9.19,1.59s8.32-1.06,9.71-1.59v-0.09c9.61-0.17,17.32-8.01,17.32-17.62
		v-28.54h-12.62c-2.59,0-4.69,2.1-4.69,4.69v19.23c-0.14,0.26-0.28,0.55-0.43,0.86c-1.1,2.26-2.73,5.62-9.8,5.62
		c-5.34,0-8-4.62-8.66-6.98v-18.73C950.1,550.33,947.99,548.23,945.4,548.23z"/>
</g>
<rect class="st7" width="1920" height="1080"/>
</svg>
