<?xml version="1.0" encoding="utf-8"?>
<!-- Generator: Adobe Illustrator 25.2.0, SVG Export Plug-In . SVG Version: 6.00 Build 0)  -->
<svg version="1.1" id="Layer_1" xmlns="http://www.w3.org/2000/svg" xmlns:xlink="http://www.w3.org/1999/xlink" x="0px" y="0px"
	 viewBox="0 0 186 186" style="enable-background:new 0 0 186 186;" xml:space="preserve">
<style type="text/css">
	.st0{fill-rule:evenodd;clip-rule:evenodd;fill:#4E73DF;}
	.st1{fill-rule:evenodd;clip-rule:evenodd;fill:#FFFFFF;}
</style>
<g>
	<path class="st0" d="M91,0c15.1,0,27.8,16.4,30.6,38.1h17.4c1.1,0,2.1,0.8,2.3,2L161.7,178c0.3,2.1-1.3,4-3.4,4H91V38.1h22.8
		c-2.7-15.5-12-26.9-23-26.9c-11,0-20.3,11.4-23,26.9H91V182H23.7c-2.1,0-3.7-1.9-3.4-4L40.8,40.1c0.2-1.1,1.1-2,2.3-2h17.3
		C63.2,16.4,75.8,0,91,0z"/>
</g>
<g>
	<path class="st1" d="M115.8,72.3h2.1v21.3H91.1l26.8,0v-6.4l-15.2,0.4L99.8,88l-1.4,0.3l-1,0.4l-1.3,0.7l-1.6,1.1l-1.3,1l-1,1
		l-1.2,1.2L90,92.5l-1-1l-1.3-1l-1.6-1.1l-1.3-0.7l-1-0.4L82.5,88l-2.9-0.3l-15.2-0.4v6.4h26.8l0,0H64.4V72.3h2.1l7.1,0.3l5.1,0.3
		l4.2,0.3l2.2,0.5l1.8,0.8l1.6,0.8l1.2,0.7l1.5,1.1l0,0l1.5-1.1l1.2-0.7l1.6-0.8l1.8-0.8l2.2-0.5l4.2-0.3l5.1-0.3L115.8,72.3z
		 M77,99.7H64.4v28.5c0,9.6,7.7,17.5,17.3,17.6v0.1c1.2,0.5,4.8,1.6,9.2,1.6s8.3-1.1,9.7-1.6v-0.1c9.6-0.2,17.3-8,17.3-17.6V99.7
		h-12.6c-2.6,0-4.7,2.1-4.7,4.7v19.2c-0.1,0.3-0.3,0.5-0.4,0.9c-1.1,2.3-2.7,5.6-9.8,5.6c-5.3,0-8-4.6-8.7-7v-18.7
		C81.7,101.8,79.6,99.7,77,99.7z"/>
</g>
</svg>
