<svg width="266" height="74" viewBox="0 0 266 74" fill="none" xmlns="http://www.w3.org/2000/svg">
<g filter="url(#filter0_d_579_2162)">
<path fill-rule="evenodd" clip-rule="evenodd" d="M34.5771 14.2463H26V67.9762H46.6259C49.9108 67.9762 52.4267 65.0547 51.9395 61.8061L45.2631 17.2969C45.0001 15.5435 43.4938 14.2463 41.7207 14.2463H37.4981C36.4402 6.12623 31.6864 0 25.982 0C20.2776 0 15.5238 6.12623 14.4659 14.2463H10.2793C8.50622 14.2463 6.99995 15.5435 6.73693 17.2969L0.0605469 61.8061C-0.426733 65.0547 2.08922 67.9762 5.3741 67.9762H26V14.2463H17.2633C18.2802 8.46234 21.7707 4.20014 25.9202 4.20014C30.0698 4.20014 33.5603 8.46234 34.5771 14.2463Z" fill="white"/>
</g>
<g filter="url(#filter1_d_579_2162)">
<path fill-rule="evenodd" clip-rule="evenodd" d="M15.9704 27.022H26.0555V27.022H16.7743L19.4418 27.1316L21.3784 27.2412L22.9496 27.3509L23.79 27.5336L24.4843 27.8259L25.0689 28.1182L25.5074 28.374L26.0555 28.7759V34.9877H26.0555L25.617 34.5411L25.2516 34.1689L24.7766 33.7966L24.1554 33.3872L23.6804 33.1266L23.315 32.9777L22.8035 32.8661L21.7073 32.7544L15.9705 32.6055V34.9877H15.9704V27.022ZM36.1406 27.022H26.0555V27.022H35.3367L32.6693 27.1316L30.7326 27.2413L29.1614 27.3509L28.321 27.5336L27.6267 27.8259L27.0421 28.1182L26.6036 28.374L26.0555 28.7759V34.9877H26.0556L26.494 34.5411L26.8594 34.1689L27.3344 33.7967L27.9556 33.3872L28.4306 33.1266L28.796 32.9778L29.3076 32.8661L30.4038 32.7544L36.1406 32.6055L36.1406 34.9877V27.022ZM22.496 43.7658C22.496 40.1618 19.5744 37.2402 15.9704 37.2402V47.8434C15.9704 51.4658 18.8742 54.4195 22.496 54.4812V43.7658ZM36.1405 37.2403C32.5365 37.2403 29.6149 40.162 29.6149 43.766V46.1768C29.5611 46.2726 29.5083 46.3805 29.4517 46.4962C29.0389 47.3396 28.4236 48.5966 25.7605 48.5966C23.7465 48.5966 22.7451 46.8717 22.496 45.9906V54.516C22.9549 54.7146 24.2895 55.1117 25.9572 55.1117C27.6248 55.1117 29.0905 54.7146 29.6149 54.516L29.6149 54.4813C33.2368 54.4196 36.1405 51.4659 36.1405 47.8435V37.2403Z" fill="#4E73DF"/>
</g>
<path d="M79.94 39.34H74.38L73.46 42H70.52L75.54 28.02H78.8L83.82 42H80.86L79.94 39.34ZM79.18 37.1L77.16 31.26L75.14 37.1H79.18ZM90.5764 28.04C92.0431 28.04 93.3297 28.3267 94.4364 28.9C95.5564 29.4733 96.4164 30.2933 97.0164 31.36C97.6297 32.4133 97.9364 33.64 97.9364 35.04C97.9364 36.44 97.6297 37.6667 97.0164 38.72C96.4164 39.76 95.5564 40.5667 94.4364 41.14C93.3297 41.7133 92.0431 42 90.5764 42H85.6964V28.04H90.5764ZM90.4764 39.62C91.9431 39.62 93.0764 39.22 93.8764 38.42C94.6764 37.62 95.0764 36.4933 95.0764 35.04C95.0764 33.5867 94.6764 32.4533 93.8764 31.64C93.0764 30.8133 91.9431 30.4 90.4764 30.4H88.4964V39.62H90.4764ZM115.252 28.04V42H112.452V32.92L108.712 42H106.592L102.832 32.92V42H100.032V28.04H103.212L107.652 38.42L112.092 28.04H115.252ZM120.821 28.04V42H118.021V28.04H120.821ZM135.527 42H132.727L126.387 32.42V42H123.587V28.02H126.387L132.727 37.62V28.02H135.527V42Z" fill="white"/>
<path d="M155.424 26.821C155.424 27.041 155.409 27.239 155.38 27.415H150.925C150.962 27.855 151.116 28.1997 151.387 28.449C151.658 28.6983 151.992 28.823 152.388 28.823C152.96 28.823 153.367 28.5773 153.609 28.086H155.27C155.094 28.6727 154.757 29.1567 154.258 29.538C153.759 29.912 153.147 30.099 152.421 30.099C151.834 30.099 151.306 29.9707 150.837 29.714C150.375 29.45 150.012 29.0797 149.748 28.603C149.491 28.1263 149.363 27.5763 149.363 26.953C149.363 26.3223 149.491 25.7687 149.748 25.292C150.005 24.8153 150.364 24.4487 150.826 24.192C151.288 23.9353 151.82 23.807 152.421 23.807C153 23.807 153.517 23.9317 153.972 24.181C154.434 24.4303 154.79 24.786 155.039 25.248C155.296 25.7027 155.424 26.227 155.424 26.821ZM153.829 26.381C153.822 25.985 153.679 25.6697 153.4 25.435C153.121 25.193 152.78 25.072 152.377 25.072C151.996 25.072 151.673 25.1893 151.409 25.424C151.152 25.6513 150.995 25.9703 150.936 26.381H153.829ZM161.234 25.424V26.722H156.57V25.424H161.234ZM162.565 26.953C162.565 26.3223 162.693 25.7723 162.95 25.303C163.207 24.8263 163.562 24.4597 164.017 24.203C164.472 23.939 164.992 23.807 165.579 23.807C166.334 23.807 166.958 23.9977 167.449 24.379C167.948 24.753 168.281 25.281 168.45 25.963H166.789C166.701 25.699 166.551 25.4937 166.338 25.347C166.133 25.193 165.876 25.116 165.568 25.116C165.128 25.116 164.78 25.2773 164.523 25.6C164.266 25.9153 164.138 26.3663 164.138 26.953C164.138 27.5323 164.266 27.9833 164.523 28.306C164.78 28.6213 165.128 28.779 165.568 28.779C166.191 28.779 166.598 28.5003 166.789 27.943H168.45C168.281 28.603 167.948 29.1273 167.449 29.516C166.95 29.9047 166.327 30.099 165.579 30.099C164.992 30.099 164.472 29.9707 164.017 29.714C163.562 29.45 163.207 29.0833 162.95 28.614C162.693 28.1373 162.565 27.5837 162.565 26.953ZM172.284 30.099C171.698 30.099 171.17 29.9707 170.7 29.714C170.231 29.45 169.861 29.0797 169.589 28.603C169.325 28.1263 169.193 27.5763 169.193 26.953C169.193 26.3297 169.329 25.7797 169.6 25.303C169.879 24.8263 170.257 24.4597 170.733 24.203C171.21 23.939 171.742 23.807 172.328 23.807C172.915 23.807 173.447 23.939 173.923 24.203C174.4 24.4597 174.774 24.8263 175.045 25.303C175.324 25.7797 175.463 26.3297 175.463 26.953C175.463 27.5763 175.32 28.1263 175.034 28.603C174.756 29.0797 174.374 29.45 173.89 29.714C173.414 29.9707 172.878 30.099 172.284 30.099ZM172.284 28.757C172.563 28.757 172.823 28.691 173.065 28.559C173.315 28.4197 173.513 28.2143 173.659 27.943C173.806 27.6717 173.879 27.3417 173.879 26.953C173.879 26.3737 173.725 25.93 173.417 25.622C173.117 25.3067 172.746 25.149 172.306 25.149C171.866 25.149 171.496 25.3067 171.195 25.622C170.902 25.93 170.755 26.3737 170.755 26.953C170.755 27.5323 170.898 27.9797 171.184 28.295C171.478 28.603 171.844 28.757 172.284 28.757ZM184.161 23.818C184.909 23.818 185.51 24.049 185.965 24.511C186.427 24.9657 186.658 25.6037 186.658 26.425V30H185.118V26.634C185.118 26.1573 184.997 25.7943 184.755 25.545C184.513 25.2883 184.183 25.16 183.765 25.16C183.347 25.16 183.013 25.2883 182.764 25.545C182.522 25.7943 182.401 26.1573 182.401 26.634V30H180.861V26.634C180.861 26.1573 180.74 25.7943 180.498 25.545C180.256 25.2883 179.926 25.16 179.508 25.16C179.083 25.16 178.745 25.2883 178.496 25.545C178.254 25.7943 178.133 26.1573 178.133 26.634V30H176.593V23.906H178.133V24.643C178.331 24.3863 178.584 24.1847 178.892 24.038C179.207 23.8913 179.552 23.818 179.926 23.818C180.403 23.818 180.828 23.9207 181.202 24.126C181.576 24.324 181.866 24.61 182.071 24.984C182.269 24.632 182.555 24.3497 182.929 24.137C183.31 23.9243 183.721 23.818 184.161 23.818ZM195.687 23.818C196.435 23.818 197.037 24.049 197.491 24.511C197.953 24.9657 198.184 25.6037 198.184 26.425V30H196.644V26.634C196.644 26.1573 196.523 25.7943 196.281 25.545C196.039 25.2883 195.709 25.16 195.291 25.16C194.873 25.16 194.54 25.2883 194.29 25.545C194.048 25.7943 193.927 26.1573 193.927 26.634V30H192.387V26.634C192.387 26.1573 192.266 25.7943 192.024 25.545C191.782 25.2883 191.452 25.16 191.034 25.16C190.609 25.16 190.272 25.2883 190.022 25.545C189.78 25.7943 189.659 26.1573 189.659 26.634V30H188.119V23.906H189.659V24.643C189.857 24.3863 190.11 24.1847 190.418 24.038C190.734 23.8913 191.078 23.818 191.452 23.818C191.929 23.818 192.354 23.9207 192.728 24.126C193.102 24.324 193.392 24.61 193.597 24.984C193.795 24.632 194.081 24.3497 194.455 24.137C194.837 23.9243 195.247 23.818 195.687 23.818ZM205.311 26.821C205.311 27.041 205.296 27.239 205.267 27.415H200.812C200.848 27.855 201.002 28.1997 201.274 28.449C201.545 28.6983 201.879 28.823 202.275 28.823C202.847 28.823 203.254 28.5773 203.496 28.086H205.157C204.981 28.6727 204.643 29.1567 204.145 29.538C203.646 29.912 203.034 30.099 202.308 30.099C201.721 30.099 201.193 29.9707 200.724 29.714C200.262 29.45 199.899 29.0797 199.635 28.603C199.378 28.1263 199.25 27.5763 199.25 26.953C199.25 26.3223 199.378 25.7687 199.635 25.292C199.891 24.8153 200.251 24.4487 200.713 24.192C201.175 23.9353 201.706 23.807 202.308 23.807C202.887 23.807 203.404 23.9317 203.859 24.181C204.321 24.4303 204.676 24.786 204.926 25.248C205.182 25.7027 205.311 26.227 205.311 26.821ZM203.716 26.381C203.708 25.985 203.565 25.6697 203.287 25.435C203.008 25.193 202.667 25.072 202.264 25.072C201.882 25.072 201.56 25.1893 201.296 25.424C201.039 25.6513 200.881 25.9703 200.823 26.381H203.716ZM207.975 24.852C208.173 24.5293 208.429 24.2763 208.745 24.093C209.067 23.9097 209.434 23.818 209.845 23.818V25.435H209.438C208.954 25.435 208.587 25.5487 208.338 25.776C208.096 26.0033 207.975 26.3993 207.975 26.964V30H206.435V23.906H207.975V24.852ZM210.486 26.953C210.486 26.3223 210.614 25.7723 210.871 25.303C211.128 24.8263 211.483 24.4597 211.938 24.203C212.393 23.939 212.913 23.807 213.5 23.807C214.255 23.807 214.879 23.9977 215.37 24.379C215.869 24.753 216.202 25.281 216.371 25.963H214.71C214.622 25.699 214.472 25.4937 214.259 25.347C214.054 25.193 213.797 25.116 213.489 25.116C213.049 25.116 212.701 25.2773 212.444 25.6C212.187 25.9153 212.059 26.3663 212.059 26.953C212.059 27.5323 212.187 27.9833 212.444 28.306C212.701 28.6213 213.049 28.779 213.489 28.779C214.112 28.779 214.519 28.5003 214.71 27.943H216.371C216.202 28.603 215.869 29.1273 215.37 29.516C214.871 29.9047 214.248 30.099 213.5 30.099C212.913 30.099 212.393 29.9707 211.938 29.714C211.483 29.45 211.128 29.0833 210.871 28.614C210.614 28.1373 210.486 27.5837 210.486 26.953ZM220.931 23.818C221.393 23.818 221.804 23.9207 222.163 24.126C222.523 24.324 222.801 24.621 222.999 25.017C223.205 25.4057 223.307 25.875 223.307 26.425V30H221.767V26.634C221.767 26.15 221.646 25.7797 221.404 25.523C221.162 25.259 220.832 25.127 220.414 25.127C219.989 25.127 219.652 25.259 219.402 25.523C219.16 25.7797 219.039 26.15 219.039 26.634V30H217.499V21.86H219.039V24.665C219.237 24.401 219.501 24.1957 219.831 24.049C220.161 23.895 220.528 23.818 220.931 23.818Z" fill="white"/>
<path d="M146.616 32.228V33.81H144.012V42H142.052V33.81H139.448V32.228H146.616ZM155.256 37.954C155.256 38.234 155.237 38.486 155.2 38.71H149.53C149.577 39.27 149.773 39.7087 150.118 40.026C150.463 40.3433 150.888 40.502 151.392 40.502C152.12 40.502 152.638 40.1893 152.946 39.564H155.06C154.836 40.3107 154.407 40.9267 153.772 41.412C153.137 41.888 152.358 42.126 151.434 42.126C150.687 42.126 150.015 41.9627 149.418 41.636C148.83 41.3 148.368 40.8287 148.032 40.222C147.705 39.6153 147.542 38.9153 147.542 38.122C147.542 37.3193 147.705 36.6147 148.032 36.008C148.359 35.4013 148.816 34.9347 149.404 34.608C149.992 34.2813 150.669 34.118 151.434 34.118C152.171 34.118 152.829 34.2767 153.408 34.594C153.996 34.9113 154.449 35.364 154.766 35.952C155.093 36.5307 155.256 37.198 155.256 37.954ZM153.226 37.394C153.217 36.89 153.035 36.4887 152.68 36.19C152.325 35.882 151.891 35.728 151.378 35.728C150.893 35.728 150.482 35.8773 150.146 36.176C149.819 36.4653 149.619 36.8713 149.544 37.394H153.226ZM158.647 31.64V42H156.687V31.64H158.647ZM165.175 42L162.543 38.696V42H160.583V31.64H162.543V37.534L165.147 34.244H167.695L164.279 38.136L167.723 42H165.175ZM172.203 42.126C171.456 42.126 170.784 41.9627 170.187 41.636C169.59 41.3 169.118 40.8287 168.773 40.222C168.437 39.6153 168.269 38.9153 168.269 38.122C168.269 37.3287 168.442 36.6287 168.787 36.022C169.142 35.4153 169.622 34.9487 170.229 34.622C170.836 34.286 171.512 34.118 172.259 34.118C173.006 34.118 173.682 34.286 174.289 34.622C174.896 34.9487 175.372 35.4153 175.717 36.022C176.072 36.6287 176.249 37.3287 176.249 38.122C176.249 38.9153 176.067 39.6153 175.703 40.222C175.348 40.8287 174.863 41.3 174.247 41.636C173.64 41.9627 172.959 42.126 172.203 42.126ZM172.203 40.418C172.558 40.418 172.889 40.334 173.197 40.166C173.514 39.9887 173.766 39.7273 173.953 39.382C174.14 39.0367 174.233 38.6167 174.233 38.122C174.233 37.3847 174.037 36.82 173.645 36.428C173.262 36.0267 172.791 35.826 172.231 35.826C171.671 35.826 171.2 36.0267 170.817 36.428C170.444 36.82 170.257 37.3847 170.257 38.122C170.257 38.8593 170.439 39.4287 170.803 39.83C171.176 40.222 171.643 40.418 172.203 40.418ZM187.319 34.132C188.271 34.132 189.036 34.426 189.615 35.014C190.203 35.5927 190.497 36.4047 190.497 37.45V42H188.537V37.716C188.537 37.1093 188.383 36.6473 188.075 36.33C187.767 36.0033 187.347 35.84 186.815 35.84C186.283 35.84 185.858 36.0033 185.541 36.33C185.233 36.6473 185.079 37.1093 185.079 37.716V42H183.119V37.716C183.119 37.1093 182.965 36.6473 182.657 36.33C182.349 36.0033 181.929 35.84 181.397 35.84C180.855 35.84 180.426 36.0033 180.109 36.33C179.801 36.6473 179.647 37.1093 179.647 37.716V42H177.687V34.244H179.647V35.182C179.899 34.8553 180.221 34.5987 180.613 34.412C181.014 34.2253 181.453 34.132 181.929 34.132C182.535 34.132 183.077 34.2627 183.553 34.524C184.029 34.776 184.397 35.14 184.659 35.616C184.911 35.168 185.275 34.8087 185.751 34.538C186.236 34.2673 186.759 34.132 187.319 34.132ZM197.625 32.228V38.276C197.625 38.9387 197.797 39.4473 198.143 39.802C198.488 40.1473 198.973 40.32 199.599 40.32C200.233 40.32 200.723 40.1473 201.069 39.802C201.414 39.4473 201.587 38.9387 201.587 38.276V32.228H203.561V38.262C203.561 39.0927 203.379 39.7973 203.015 40.376C202.66 40.9453 202.179 41.3747 201.573 41.664C200.975 41.9533 200.308 42.098 199.571 42.098C198.843 42.098 198.18 41.9533 197.583 41.664C196.995 41.3747 196.528 40.9453 196.183 40.376C195.837 39.7973 195.665 39.0927 195.665 38.262V32.228H197.625ZM209.752 34.132C210.676 34.132 211.423 34.426 211.992 35.014C212.562 35.5927 212.846 36.4047 212.846 37.45V42H210.886V37.716C210.886 37.1 210.732 36.6287 210.424 36.302C210.116 35.966 209.696 35.798 209.164 35.798C208.623 35.798 208.194 35.966 207.876 36.302C207.568 36.6287 207.414 37.1 207.414 37.716V42H205.454V34.244H207.414V35.21C207.676 34.874 208.007 34.6127 208.408 34.426C208.819 34.23 209.267 34.132 209.752 34.132ZM215.704 33.32C215.359 33.32 215.069 33.2127 214.836 32.998C214.612 32.774 214.5 32.4987 214.5 32.172C214.5 31.8453 214.612 31.5747 214.836 31.36C215.069 31.136 215.359 31.024 215.704 31.024C216.049 31.024 216.334 31.136 216.558 31.36C216.791 31.5747 216.908 31.8453 216.908 32.172C216.908 32.4987 216.791 32.774 216.558 32.998C216.334 33.2127 216.049 33.32 215.704 33.32ZM216.67 34.244V42H214.71V34.244H216.67ZM221.841 40.194L223.801 34.244H225.887L223.017 42H220.637L217.781 34.244H219.881L221.841 40.194ZM234.197 37.954C234.197 38.234 234.179 38.486 234.141 38.71H228.471C228.518 39.27 228.714 39.7087 229.059 40.026C229.405 40.3433 229.829 40.502 230.333 40.502C231.061 40.502 231.579 40.1893 231.887 39.564H234.001C233.777 40.3107 233.348 40.9267 232.713 41.412C232.079 41.888 231.299 42.126 230.375 42.126C229.629 42.126 228.957 41.9627 228.359 41.636C227.771 41.3 227.309 40.8287 226.973 40.222C226.647 39.6153 226.483 38.9153 226.483 38.122C226.483 37.3193 226.647 36.6147 226.973 36.008C227.3 35.4013 227.757 34.9347 228.345 34.608C228.933 34.2813 229.61 34.118 230.375 34.118C231.113 34.118 231.771 34.2767 232.349 34.594C232.937 34.9113 233.39 35.364 233.707 35.952C234.034 36.5307 234.197 37.198 234.197 37.954ZM232.167 37.394C232.158 36.89 231.976 36.4887 231.621 36.19C231.267 35.882 230.833 35.728 230.319 35.728C229.834 35.728 229.423 35.8773 229.087 36.176C228.761 36.4653 228.56 36.8713 228.485 37.394H232.167ZM237.588 35.448C237.84 35.0373 238.167 34.7153 238.568 34.482C238.979 34.2487 239.445 34.132 239.968 34.132V36.19H239.45C238.834 36.19 238.367 36.3347 238.05 36.624C237.742 36.9133 237.588 37.4173 237.588 38.136V42H235.628V34.244H237.588V35.448ZM244.256 42.126C243.622 42.126 243.052 42.014 242.548 41.79C242.044 41.5567 241.643 41.244 241.344 40.852C241.055 40.46 240.896 40.026 240.868 39.55H242.842C242.88 39.8487 243.024 40.096 243.276 40.292C243.538 40.488 243.86 40.586 244.242 40.586C244.616 40.586 244.905 40.5113 245.11 40.362C245.325 40.2127 245.432 40.0213 245.432 39.788C245.432 39.536 245.302 39.3493 245.04 39.228C244.788 39.0973 244.382 38.9573 243.822 38.808C243.244 38.668 242.768 38.5233 242.394 38.374C242.03 38.2247 241.713 37.996 241.442 37.688C241.181 37.38 241.05 36.9647 241.05 36.442C241.05 36.0127 241.172 35.6207 241.414 35.266C241.666 34.9113 242.021 34.6313 242.478 34.426C242.945 34.2207 243.491 34.118 244.116 34.118C245.04 34.118 245.778 34.3513 246.328 34.818C246.879 35.2753 247.182 35.896 247.238 36.68H245.362C245.334 36.372 245.204 36.1293 244.97 35.952C244.746 35.7653 244.443 35.672 244.06 35.672C243.706 35.672 243.43 35.7373 243.234 35.868C243.048 35.9987 242.954 36.1807 242.954 36.414C242.954 36.6753 243.085 36.876 243.346 37.016C243.608 37.1467 244.014 37.282 244.564 37.422C245.124 37.562 245.586 37.7067 245.95 37.856C246.314 38.0053 246.627 38.2387 246.888 38.556C247.159 38.864 247.299 39.2747 247.308 39.788C247.308 40.236 247.182 40.6373 246.93 40.992C246.688 41.3467 246.333 41.6267 245.866 41.832C245.409 42.028 244.872 42.126 244.256 42.126ZM249.911 33.32C249.566 33.32 249.277 33.2127 249.043 32.998C248.819 32.774 248.707 32.4987 248.707 32.172C248.707 31.8453 248.819 31.5747 249.043 31.36C249.277 31.136 249.566 31.024 249.911 31.024C250.257 31.024 250.541 31.136 250.765 31.36C250.999 31.5747 251.115 31.8453 251.115 32.172C251.115 32.4987 250.999 32.774 250.765 32.998C250.541 33.2127 250.257 33.32 249.911 33.32ZM250.877 34.244V42H248.917V34.244H250.877ZM255.096 35.854V39.606C255.096 39.8673 255.156 40.0587 255.278 40.18C255.408 40.292 255.623 40.348 255.922 40.348H256.832V42H255.6C253.948 42 253.122 41.1973 253.122 39.592V35.854H252.198V34.244H253.122V32.326H255.096V34.244H256.832V35.854H255.096ZM265.661 34.244L260.859 45.668H258.773L260.453 41.804L257.345 34.244H259.543L261.545 39.662L263.575 34.244H265.661Z" fill="white"/>
<rect x="68" y="49" width="198" height="3" fill="url(#paint0_linear_579_2162)"/>
<defs>
<filter id="filter0_d_579_2162" x="0" y="0" width="57.6985" height="73.6746" filterUnits="userSpaceOnUse" color-interpolation-filters="sRGB">
<feFlood flood-opacity="0" result="BackgroundImageFix"/>
<feColorMatrix in="SourceAlpha" type="matrix" values="0 0 0 0 0 0 0 0 0 0 0 0 0 0 0 0 0 0 127 0" result="hardAlpha"/>
<feOffset dx="2.84925" dy="2.84925"/>
<feGaussianBlur stdDeviation="1.42463"/>
<feComposite in2="hardAlpha" operator="out"/>
<feColorMatrix type="matrix" values="0 0 0 0 0 0 0 0 0 0 0 0 0 0 0 0 0 0 0.25 0"/>
<feBlend mode="normal" in2="BackgroundImageFix" result="effect1_dropShadow_579_2162"/>
<feBlend mode="normal" in="SourceGraphic" in2="effect1_dropShadow_579_2162" result="shape"/>
</filter>
<filter id="filter1_d_579_2162" x="15.9704" y="27.022" width="25.8687" height="33.7884" filterUnits="userSpaceOnUse" color-interpolation-filters="sRGB">
<feFlood flood-opacity="0" result="BackgroundImageFix"/>
<feColorMatrix in="SourceAlpha" type="matrix" values="0 0 0 0 0 0 0 0 0 0 0 0 0 0 0 0 0 0 127 0" result="hardAlpha"/>
<feOffset dx="2.84925" dy="2.84925"/>
<feGaussianBlur stdDeviation="1.42463"/>
<feComposite in2="hardAlpha" operator="out"/>
<feColorMatrix type="matrix" values="0 0 0 0 0 0 0 0 0 0 0 0 0 0 0 0 0 0 0.25 0"/>
<feBlend mode="normal" in2="BackgroundImageFix" result="effect1_dropShadow_579_2162"/>
<feBlend mode="normal" in="SourceGraphic" in2="effect1_dropShadow_579_2162" result="shape"/>
</filter>
<linearGradient id="paint0_linear_579_2162" x1="266" y1="49" x2="68" y2="49" gradientUnits="userSpaceOnUse">
<stop stop-color="white"/>
<stop offset="1" stop-color="white" stop-opacity="0"/>
</linearGradient>
</defs>
</svg>
